<?xml version="1.0" standalone="no"?>
<!DOCTYPE svg PUBLIC "-//W3C//DTD SVG 20010904//EN"
 "http://www.w3.org/TR/2001/REC-SVG-20010904/DTD/svg10.dtd">
<svg version="1.0" xmlns="http://www.w3.org/2000/svg"
 width="137.000000pt" height="112.000000pt" viewBox="0 0 137.000000 112.000000"
 preserveAspectRatio="xMidYMid meet">

<g transform="translate(0.000000,112.000000) scale(0.100000,-0.100000)"
fill="#000000" stroke="none">
<path d="M668 1028 l-3 -93 -333 -3 -332 -2 0 -105 0 -105 300 0 c337 0 313
-5 405 80 65 61 126 95 200 114 145 38 294 7 418 -88 l47 -36 0 165 0 165
-350 0 -349 0 -3 -92z"/>
<path d="M1302 713 l-63 -56 -52 21 c-29 12 -75 27 -103 33 -96 22 -192 -19
-260 -113 l-36 -48 -299 0 -298 0 -3 -157 -3 -158 -93 0 -92 0 0 -117 0 -118
498 1 c451 1 491 2 433 15 -168 36 -308 161 -340 303 l-9 41 109 0 110 0 64
-55 c86 -72 118 -88 184 -87 41 0 70 9 125 36 l71 36 62 -68 62 -67 1 308 c0
169 -1 307 -2 307 -2 0 -31 -26 -66 -57z"/>
<path d="M1328 112 c-46 -47 -114 -82 -188 -98 -52 -12 -48 -12 88 -13 l142
-1 0 75 c0 41 -1 75 -2 75 -2 0 -20 -17 -40 -38z"/>
</g>
</svg>
