<?xml version="1.0" standalone="no"?>
<!DOCTYPE svg PUBLIC "-//W3C//DTD SVG 20010904//EN"
 "http://www.w3.org/TR/2001/REC-SVG-20010904/DTD/svg10.dtd">
<svg version="1.0" xmlns="http://www.w3.org/2000/svg"
 width="225.000000pt" height="196.000000pt" viewBox="0 0 225.000000 196.000000"
 preserveAspectRatio="xMidYMid meet">

<g transform="translate(0.000000,196.000000) scale(0.100000,-0.100000)"
fill="#000000" stroke="none">
<path d="M0 980 l0 -980 1125 0 1125 0 0 980 0 980 -1125 0 -1125 0 0 -980z
m2119 836 c8 -10 10 -238 9 -842 l-3 -829 -994 -3 c-726 -1 -997 1 -1007 9
-19 16 -21 1648 -2 1667 19 19 1981 17 1997 -2z"/>
<path d="M160 985 l0 -795 960 0 960 0 0 795 0 795 -960 0 -960 0 0 -795z
m948 433 l-3 -93 -332 -3 -333 -2 0 95 0 95 335 0 336 0 -3 -92z m477 -113
c32 -9 80 -27 106 -41 52 -29 119 -81 119 -94 0 -4 -30 -34 -66 -65 l-66 -58
-51 21 c-29 12 -75 27 -103 33 -96 22 -192 -19 -260 -113 l-36 -48 -299 0
-298 0 -3 -157 -3 -158 -90 0 -90 0 -3 243 -2 242 300 0 c337 0 313 -5 405 80
125 116 280 156 440 115z m-280 -610 c85 -72 118 -88 182 -87 47 0 110 23 194
69 3 2 33 -28 67 -66 l61 -69 -40 -39 c-91 -90 -240 -129 -383 -100 -107 22
-180 59 -247 127 -61 60 -93 114 -108 179 l-9 41 109 0 110 0 64 -55z"/>
</g>
</svg>
