<svg version="1" xmlns="http://www.w3.org/2000/svg" width="400" height="400" viewBox="0 0 300.000000 300.000000">
    <g fill ="#9537F6">
        <path d="M53.1 24.7c3.3 8.2 6.4 15.8 6.9 17 1.9 4.3 2.9 6.8 5.5 13.2l2.5 6.5-10.5 28.9-10.6 29 6.7 20.1c6.8 20.5 10.7 31.6 17.2 48.6 9.3 24.6 9.6 25.1 20.8 40.1 6 8 15.9 21.5 21.9 30.1l11 15.5 13.8 8.3 13.8 8.4 3.7-1.9c2-1.1 5.5-3.1 7.7-4.5s6.9-4.3 10.5-6.4c6-3.5 7.4-5.1 17.5-19.4 6.1-8.5 15.9-22.1 22-30.1l11-14.6 8.3-21.5c4.5-11.8 9.6-26.2 11.3-32 1.7-5.8 4.1-14.1 5.4-18.5 1.4-4.4 3.4-11.2 4.5-15.1l2-7.1-2.5-6.9c-1.4-3.8-3.6-9.8-4.9-13.4-1.3-3.6-4.9-13.5-8-22.1l-5.7-15.6 10.4-25.7C251 21.5 255.5 10 255.1 10c-.6 0-20.1 8-46.1 19-7.4 3.1-14.2 5.9-15 6.2-1.3.4-7.9-5.6-8-7.4 0-1-5.6-2.5-14-3.8-4.1-.7-8.4-1.4-9.5-1.6-2-.4-7.7-1.4-10.5-1.9-.8-.1-3 .2-5 .6-1.9.4-5.3 1-7.5 1.4-20.4 3.1-20.7 3.2-25 8-2.2 2.5-4.5 4.5-5.1 4.5-.6 0-14.5-5.6-31-12.5C62 15.6 48.2 10 47.8 10c-.3 0 2 6.6 5.3 14.7zm83.2 74.8c6.8 4.1 13 7.7 13.9 8 .9.4 7.2-2.8 15.1-7.6l13.6-8.1 8.3 1.1c4.6.7 9.9 1.4 11.8 1.7 1.9.3 4.4.6 5.5.9 1.1.2 4.3.7 7 1.1 2.8.3 5.2.8 5.5 1.1.3.3.5 12.7.6 27.6v27.2l-5.6 14.1c-3.5 8.6-7.8 17.4-11.2 22.5-4.8 7.3-6.6 11.5-13.7 32.9l-8.1 24.6-8.8 8.5-8.7 8.5-10.7-.1-10.6-.1-8.3-8.3-8.3-8.2-8.3-24.7c-7-20.8-9.2-26-13.9-33.4-3.1-4.9-8.1-14.8-11.1-22.1l-5.5-13.2v-27.8c0-15.3.2-28 .4-28.2.2-.2 2.8-.6 5.8-1 3-.3 6.2-.7 7-1 .8-.2 3.5-.6 6-1 2.5-.3 6.8-.9 9.5-1.4 9.3-1.6 10-1.4 22.8 6.4z"/>
        <path d="M96 125c0 4.3.7 6 5.4 13.4 5.2 8 5.7 8.4 9.8 9 2.4.3 4.9.7 5.6.8.8.1 1.2 1.9 1.2 5 0 2.6.3 4.8.6 4.8.4 0 8.8-4.6 10.2-5.6.2-.1-.8-5.2-2.3-11.2l-2.7-10.9-9.6-3.7c-5.3-2.1-11.2-4.4-13-5.2-4.8-2.1-5.2-1.9-5.2 3.6zM197 123.1c-4.1 1.6-8.8 3.6-10.5 4.3-1.6.8-4 1.7-5.2 2-1.5.5-2.6 1.9-3.2 4.4-1.4 5.4-4.1 17.2-4.1 18.1 0 .4 1.7 1.6 3.8 2.6 7.1 3.7 6.8 3.7 6.9-1.2.1-2.5.4-4.7.6-4.9.2-.3 2.7-.7 5.6-1.1 5.5-.6 5.6-.7 13.7-14.1 2.4-3.7 3-13.2 1-13.1-.6 0-4.5 1.4-8.6 3zM139.5 166.7c-.4 1.6-.9 3.9-1.1 5.3-.4 2.2-1.5 7.8-2.8 14.5-.3 1.1-1.2 5.6-2.1 10-.9 4.4-1.8 9.1-2 10.5-.2 1.4-.8 4.5-1.4 6.9-.8 3.7-.6 5.5 1.6 12 1.4 4.2 3.8 10.4 5.4 13.8 2.6 5.5 3.3 6.3 5.7 6.3 1.5 0 3.9 1.1 5.5 2.6 2.9 2.7 3.3 2.6 7.5-1.4.7-.6 2.5-1.2 4-1.2 2.2 0 3.2-.9 5.4-5.3 1.5-2.8 3.6-8.1 4.8-11.7 1.2-3.6 2.5-7.3 3-8.2.5-1 .8-2.3.5-3-.2-.7-.6-2.4-.9-3.8-1.2-7.4-9.8-49.6-10.2-49.9-.2-.2-2.8.8-5.8 2.3l-5.4 2.7-5.1-2.5c-2.8-1.4-5.2-2.6-5.5-2.6-.2 0-.7 1.2-1.1 2.7z"/>
    </g>
</svg>