<?xml version="1.0" standalone="no"?>
<!DOCTYPE svg PUBLIC "-//W3C//DTD SVG 20010904//EN"
 "http://www.w3.org/TR/2001/REC-SVG-20010904/DTD/svg10.dtd">
<svg version="1.0" xmlns="http://www.w3.org/2000/svg"
 width="87.000000pt" height="80.000000pt" viewBox="0 0 87.000000 80.000000"
 preserveAspectRatio="xMidYMid meet">
<rect width="105.368" height="105.368" rx="5" transform="translate(0)" fill="#f6da3a"/>
<g transform="translate(0.000000,80.000000) scale(0.100000,-0.100000)"
fill="#00000" stroke="none">
<path d="M330 578 c0 -2 -1 -65 -3 -141 -1 -106 -5 -140 -16 -146 -17 -11 -42
-4 -58 16 -10 13 -16 13 -42 -3 -24 -14 -28 -21 -20 -36 23 -43 105 -61 158
-33 41 21 51 61 51 211 l0 134 -35 0 c-19 0 -35 -1 -35 -2z"/>
<path d="M489 551 c-22 -23 -29 -39 -29 -69 0 -51 23 -79 91 -111 61 -29 76
-61 39 -81 -25 -14 -75 2 -84 26 -5 13 -10 13 -36 -1 -16 -8 -30 -19 -30 -23
0 -23 62 -65 103 -69 94 -11 156 38 144 114 -8 46 -20 59 -89 94 -65 33 -79
52 -55 76 15 16 27 14 58 -8 12 -9 22 -8 44 7 l27 18 -31 28 c-45 40 -111 40
-152 -1z"/>
</g>
</svg>
