<?xml version="1.0" standalone="no"?>
<!DOCTYPE svg PUBLIC "-//W3C//DTD SVG 20010904//EN"
 "http://www.w3.org/TR/2001/REC-SVG-20010904/DTD/svg10.dtd">
<svg version="1.0" xmlns="http://www.w3.org/2000/svg"
 width="512.000000pt" height="512.000000pt" viewBox="0 0 512.000000 512.000000"
 preserveAspectRatio="xMidYMid meet">

<g transform="translate(0.000000,512.000000) scale(0.100000,-0.100000)"
fill="#3179C5" stroke="none">
<path d="M80 2565 l0 -2495 2500 0 2500 0 0 2495 0 2495 -2500 0 -2500 0 0
-2495z m3921 215 c172 -17 292 -70 401 -175 57 -55 138 -160 138 -179 0 -13
-329 -236 -348 -236 -6 0 -24 19 -41 43 -70 100 -145 141 -261 141 -109 0
-171 -35 -205 -117 -33 -79 -9 -175 59 -235 43 -38 99 -67 291 -152 414 -182
567 -320 631 -570 23 -88 23 -263 0 -350 -88 -328 -427 -512 -870 -472 -297
28 -531 159 -679 380 -27 40 -47 78 -44 85 5 13 351 217 367 217 5 0 24 -22
43 -48 52 -70 136 -146 195 -176 68 -34 131 -47 227 -47 183 1 290 75 303 212
5 53 -10 106 -40 145 -35 43 -118 91 -336 190 -260 118 -347 170 -441 264 -85
84 -140 177 -167 281 -26 99 -23 295 6 379 77 229 279 389 530 419 95 12 127
12 241 1z m-1061 -225 l0 -205 -325 0 -325 0 0 -925 0 -925 -235 0 -235 0 0
925 0 925 -325 0 -325 0 0 183 c0 100 3 192 6 205 l6 22 879 0 879 0 0 -205z"/>
</g>
</svg>
